<svg xmlns="http://www.w3.org/2000/svg" width="75" height="75" viewBox="0 0 75 75"><defs><style>.a{fill:#0f0c0d;fill-rule:evenodd;}.b{fill:none;}</style></defs><g transform="translate(-29 -979)"><path class="a" d="M173.817,107.44a37.5,37.5,0,0,0-11.851,73.085c1.876.343,2.56-.813,2.56-1.807,0-.891-.032-3.248-.051-6.379-10.431,2.268-12.632-5.025-12.632-5.025-1.706-4.333-4.164-5.486-4.164-5.486-3.4-2.327.258-2.279.258-2.279,3.764.265,5.744,3.863,5.744,3.863,3.345,5.732,8.778,4.077,10.914,3.117a8.016,8.016,0,0,1,2.38-5.014c-8.327-.946-17.082-4.162-17.082-18.534a14.5,14.5,0,0,1,3.861-10.062,13.472,13.472,0,0,1,.368-9.924s3.147-1.008,10.311,3.844a35.561,35.561,0,0,1,18.776,0c7.16-4.853,10.3-3.844,10.3-3.844a13.476,13.476,0,0,1,.375,9.924,14.472,14.472,0,0,1,3.854,10.062c0,14.407-8.769,17.577-17.123,18.5,1.347,1.158,2.546,3.449,2.546,6.945,0,5.014-.046,9.059-.046,10.288,0,1,.677,2.169,2.578,1.8a37.506,37.506,0,0,0-11.879-73.08Z" transform="translate(-107.32 872.56)"/><rect class="b" width="75" height="75" transform="translate(29 979)"/></g></svg>